<mxfile host="app.diagrams.net" modified="2023-08-12T21:56:54.987Z" agent="Mozilla/5.0 (Windows NT 10.0; Win64; x64; rv:109.0) Gecko/20100101 Firefox/116.0" etag="hq4wLZHvmufsHSNb-ckX" version="21.6.8" type="device">
  <diagram id="C5RBs43oDa-KdzZeNtuy" name="Page-1">
    <mxGraphModel dx="1290" dy="530" grid="1" gridSize="10" guides="1" tooltips="1" connect="1" arrows="1" fold="1" page="1" pageScale="1" pageWidth="827" pageHeight="1169" math="0" shadow="0">
      <root>
        <mxCell id="WIyWlLk6GJQsqaUBKTNV-0" />
        <mxCell id="WIyWlLk6GJQsqaUBKTNV-1" parent="WIyWlLk6GJQsqaUBKTNV-0" />
        <mxCell id="YmDAYxAF2d3pHJYydPH4-0" value="Start" style="rounded=1;whiteSpace=wrap;html=1;" vertex="1" parent="WIyWlLk6GJQsqaUBKTNV-1">
          <mxGeometry x="270" y="10" width="110" height="40" as="geometry" />
        </mxCell>
        <mxCell id="YmDAYxAF2d3pHJYydPH4-1" value="int n1" style="rounded=0;whiteSpace=wrap;html=1;" vertex="1" parent="WIyWlLk6GJQsqaUBKTNV-1">
          <mxGeometry x="281.5" y="70" width="95" height="20" as="geometry" />
        </mxCell>
        <mxCell id="YmDAYxAF2d3pHJYydPH4-2" value="&quot;Ingrese n1&quot;" style="shape=parallelogram;perimeter=parallelogramPerimeter;whiteSpace=wrap;html=1;fixedSize=1;" vertex="1" parent="WIyWlLk6GJQsqaUBKTNV-1">
          <mxGeometry x="276.5" y="120" width="100" height="40" as="geometry" />
        </mxCell>
        <mxCell id="YmDAYxAF2d3pHJYydPH4-3" value="int n2" style="rounded=0;whiteSpace=wrap;html=1;" vertex="1" parent="WIyWlLk6GJQsqaUBKTNV-1">
          <mxGeometry x="280" y="190" width="99" height="20" as="geometry" />
        </mxCell>
        <mxCell id="YmDAYxAF2d3pHJYydPH4-4" value="&quot;Ingrese n2&quot;" style="shape=parallelogram;perimeter=parallelogramPerimeter;whiteSpace=wrap;html=1;fixedSize=1;" vertex="1" parent="WIyWlLk6GJQsqaUBKTNV-1">
          <mxGeometry x="267.5" y="240" width="110" height="40" as="geometry" />
        </mxCell>
        <mxCell id="YmDAYxAF2d3pHJYydPH4-5" value="int n3" style="rounded=0;whiteSpace=wrap;html=1;" vertex="1" parent="WIyWlLk6GJQsqaUBKTNV-1">
          <mxGeometry x="276.5" y="310" width="110" height="30" as="geometry" />
        </mxCell>
        <mxCell id="YmDAYxAF2d3pHJYydPH4-6" value="&quot;Ingrese n3&quot;" style="shape=parallelogram;perimeter=parallelogramPerimeter;whiteSpace=wrap;html=1;fixedSize=1;" vertex="1" parent="WIyWlLk6GJQsqaUBKTNV-1">
          <mxGeometry x="275" y="370" width="115" height="40" as="geometry" />
        </mxCell>
        <mxCell id="YmDAYxAF2d3pHJYydPH4-7" value="int temporal" style="rounded=0;whiteSpace=wrap;html=1;" vertex="1" parent="WIyWlLk6GJQsqaUBKTNV-1">
          <mxGeometry x="281.5" y="440" width="110" height="30" as="geometry" />
        </mxCell>
        <mxCell id="YmDAYxAF2d3pHJYydPH4-8" value="n1&amp;gt;n2" style="rhombus;whiteSpace=wrap;html=1;" vertex="1" parent="WIyWlLk6GJQsqaUBKTNV-1">
          <mxGeometry x="297.5" y="510" width="80" height="80" as="geometry" />
        </mxCell>
        <mxCell id="YmDAYxAF2d3pHJYydPH4-9" value="&lt;div&gt;&amp;nbsp;temporal = n1;&lt;/div&gt;&lt;div&gt;n1 = n2;&lt;/div&gt;&amp;nbsp;&amp;nbsp;&amp;nbsp;&amp;nbsp;&amp;nbsp;&amp;nbsp;&amp;nbsp;&amp;nbsp;&amp;nbsp; n2 = temporal;" style="rounded=0;whiteSpace=wrap;html=1;" vertex="1" parent="WIyWlLk6GJQsqaUBKTNV-1">
          <mxGeometry x="267.5" y="640" width="160" height="60" as="geometry" />
        </mxCell>
        <mxCell id="YmDAYxAF2d3pHJYydPH4-10" value="" style="ellipse;whiteSpace=wrap;html=1;aspect=fixed;" vertex="1" parent="WIyWlLk6GJQsqaUBKTNV-1">
          <mxGeometry x="316.5" y="770" width="40" height="40" as="geometry" />
        </mxCell>
        <mxCell id="YmDAYxAF2d3pHJYydPH4-11" value="n2 &amp;gt; n3" style="rhombus;whiteSpace=wrap;html=1;" vertex="1" parent="WIyWlLk6GJQsqaUBKTNV-1">
          <mxGeometry x="297.5" y="850" width="80" height="80" as="geometry" />
        </mxCell>
        <mxCell id="YmDAYxAF2d3pHJYydPH4-12" value="&lt;div&gt;temporal = n2;&lt;/div&gt;&lt;div&gt;n2 = n3;&lt;/div&gt;&amp;nbsp;n3 = temporal;" style="rounded=0;whiteSpace=wrap;html=1;" vertex="1" parent="WIyWlLk6GJQsqaUBKTNV-1">
          <mxGeometry x="267.5" y="970" width="157.5" height="50" as="geometry" />
        </mxCell>
        <mxCell id="YmDAYxAF2d3pHJYydPH4-14" value="n1&amp;gt;n2" style="rhombus;whiteSpace=wrap;html=1;" vertex="1" parent="WIyWlLk6GJQsqaUBKTNV-1">
          <mxGeometry x="306.25" y="1190" width="80" height="80" as="geometry" />
        </mxCell>
        <mxCell id="YmDAYxAF2d3pHJYydPH4-18" value="" style="endArrow=classic;html=1;rounded=0;exitX=0.5;exitY=1;exitDx=0;exitDy=0;entryX=0.5;entryY=0;entryDx=0;entryDy=0;" edge="1" parent="WIyWlLk6GJQsqaUBKTNV-1" source="YmDAYxAF2d3pHJYydPH4-0" target="YmDAYxAF2d3pHJYydPH4-1">
          <mxGeometry width="50" height="50" relative="1" as="geometry">
            <mxPoint x="440" y="200" as="sourcePoint" />
            <mxPoint x="490" y="150" as="targetPoint" />
          </mxGeometry>
        </mxCell>
        <mxCell id="YmDAYxAF2d3pHJYydPH4-19" value="" style="endArrow=classic;html=1;rounded=0;entryX=0.5;entryY=0;entryDx=0;entryDy=0;exitX=0.5;exitY=1;exitDx=0;exitDy=0;" edge="1" parent="WIyWlLk6GJQsqaUBKTNV-1" source="YmDAYxAF2d3pHJYydPH4-1" target="YmDAYxAF2d3pHJYydPH4-2">
          <mxGeometry width="50" height="50" relative="1" as="geometry">
            <mxPoint x="350" y="130" as="sourcePoint" />
            <mxPoint x="400" y="80" as="targetPoint" />
          </mxGeometry>
        </mxCell>
        <mxCell id="YmDAYxAF2d3pHJYydPH4-21" value="" style="endArrow=classic;html=1;rounded=0;exitX=0.5;exitY=1;exitDx=0;exitDy=0;entryX=0.5;entryY=0;entryDx=0;entryDy=0;" edge="1" parent="WIyWlLk6GJQsqaUBKTNV-1" source="YmDAYxAF2d3pHJYydPH4-2" target="YmDAYxAF2d3pHJYydPH4-3">
          <mxGeometry width="50" height="50" relative="1" as="geometry">
            <mxPoint x="410" y="190" as="sourcePoint" />
            <mxPoint x="460" y="140" as="targetPoint" />
          </mxGeometry>
        </mxCell>
        <mxCell id="YmDAYxAF2d3pHJYydPH4-22" value="" style="endArrow=classic;html=1;rounded=0;exitX=0.5;exitY=1;exitDx=0;exitDy=0;entryX=0.577;entryY=-0.025;entryDx=0;entryDy=0;entryPerimeter=0;" edge="1" parent="WIyWlLk6GJQsqaUBKTNV-1" source="YmDAYxAF2d3pHJYydPH4-3" target="YmDAYxAF2d3pHJYydPH4-4">
          <mxGeometry width="50" height="50" relative="1" as="geometry">
            <mxPoint x="510" y="220" as="sourcePoint" />
            <mxPoint x="560" y="170" as="targetPoint" />
          </mxGeometry>
        </mxCell>
        <mxCell id="YmDAYxAF2d3pHJYydPH4-24" value="" style="endArrow=classic;html=1;rounded=0;exitX=0.5;exitY=1;exitDx=0;exitDy=0;entryX=0.429;entryY=0.025;entryDx=0;entryDy=0;entryPerimeter=0;" edge="1" parent="WIyWlLk6GJQsqaUBKTNV-1" source="YmDAYxAF2d3pHJYydPH4-4" target="YmDAYxAF2d3pHJYydPH4-5">
          <mxGeometry width="50" height="50" relative="1" as="geometry">
            <mxPoint x="480" y="290" as="sourcePoint" />
            <mxPoint x="530" y="240" as="targetPoint" />
          </mxGeometry>
        </mxCell>
        <mxCell id="YmDAYxAF2d3pHJYydPH4-25" value="" style="endArrow=classic;html=1;rounded=0;exitX=0.5;exitY=1;exitDx=0;exitDy=0;entryX=0.5;entryY=0;entryDx=0;entryDy=0;" edge="1" parent="WIyWlLk6GJQsqaUBKTNV-1" source="YmDAYxAF2d3pHJYydPH4-5" target="YmDAYxAF2d3pHJYydPH4-6">
          <mxGeometry width="50" height="50" relative="1" as="geometry">
            <mxPoint x="440" y="360" as="sourcePoint" />
            <mxPoint x="330" y="360" as="targetPoint" />
          </mxGeometry>
        </mxCell>
        <mxCell id="YmDAYxAF2d3pHJYydPH4-26" value="" style="endArrow=classic;html=1;rounded=0;exitX=0.5;exitY=1;exitDx=0;exitDy=0;entryX=0.436;entryY=-0.033;entryDx=0;entryDy=0;entryPerimeter=0;" edge="1" parent="WIyWlLk6GJQsqaUBKTNV-1" source="YmDAYxAF2d3pHJYydPH4-6" target="YmDAYxAF2d3pHJYydPH4-7">
          <mxGeometry width="50" height="50" relative="1" as="geometry">
            <mxPoint x="460" y="420" as="sourcePoint" />
            <mxPoint x="510" y="370" as="targetPoint" />
          </mxGeometry>
        </mxCell>
        <mxCell id="YmDAYxAF2d3pHJYydPH4-27" value="" style="endArrow=classic;html=1;rounded=0;exitX=0.5;exitY=1;exitDx=0;exitDy=0;entryX=0.5;entryY=0;entryDx=0;entryDy=0;" edge="1" parent="WIyWlLk6GJQsqaUBKTNV-1" source="YmDAYxAF2d3pHJYydPH4-7" target="YmDAYxAF2d3pHJYydPH4-8">
          <mxGeometry width="50" height="50" relative="1" as="geometry">
            <mxPoint x="490" y="480" as="sourcePoint" />
            <mxPoint x="540" y="430" as="targetPoint" />
          </mxGeometry>
        </mxCell>
        <mxCell id="YmDAYxAF2d3pHJYydPH4-28" value="" style="endArrow=classic;html=1;rounded=0;exitX=0.5;exitY=1;exitDx=0;exitDy=0;entryX=0.428;entryY=-0.05;entryDx=0;entryDy=0;entryPerimeter=0;" edge="1" parent="WIyWlLk6GJQsqaUBKTNV-1" source="YmDAYxAF2d3pHJYydPH4-8" target="YmDAYxAF2d3pHJYydPH4-9">
          <mxGeometry width="50" height="50" relative="1" as="geometry">
            <mxPoint x="430" y="590" as="sourcePoint" />
            <mxPoint x="480" y="540" as="targetPoint" />
          </mxGeometry>
        </mxCell>
        <mxCell id="YmDAYxAF2d3pHJYydPH4-33" value="Si" style="edgeLabel;html=1;align=center;verticalAlign=middle;resizable=0;points=[];" vertex="1" connectable="0" parent="YmDAYxAF2d3pHJYydPH4-28">
          <mxGeometry x="-0.2739" y="-2" relative="1" as="geometry">
            <mxPoint as="offset" />
          </mxGeometry>
        </mxCell>
        <mxCell id="YmDAYxAF2d3pHJYydPH4-30" value="" style="endArrow=classic;html=1;rounded=0;exitX=0.434;exitY=1.05;exitDx=0;exitDy=0;entryX=0.5;entryY=0;entryDx=0;entryDy=0;exitPerimeter=0;" edge="1" parent="WIyWlLk6GJQsqaUBKTNV-1" source="YmDAYxAF2d3pHJYydPH4-9" target="YmDAYxAF2d3pHJYydPH4-10">
          <mxGeometry width="50" height="50" relative="1" as="geometry">
            <mxPoint x="500" y="760" as="sourcePoint" />
            <mxPoint x="550" y="710" as="targetPoint" />
          </mxGeometry>
        </mxCell>
        <mxCell id="YmDAYxAF2d3pHJYydPH4-31" value="" style="endArrow=classic;html=1;rounded=0;entryX=1;entryY=0.5;entryDx=0;entryDy=0;" edge="1" parent="WIyWlLk6GJQsqaUBKTNV-1" target="YmDAYxAF2d3pHJYydPH4-10">
          <mxGeometry width="50" height="50" relative="1" as="geometry">
            <mxPoint x="380" y="550" as="sourcePoint" />
            <mxPoint x="600" y="720" as="targetPoint" />
            <Array as="points">
              <mxPoint x="540" y="650" />
            </Array>
          </mxGeometry>
        </mxCell>
        <mxCell id="YmDAYxAF2d3pHJYydPH4-32" value="No" style="text;html=1;align=center;verticalAlign=middle;resizable=0;points=[];autosize=1;strokeColor=none;fillColor=none;" vertex="1" parent="WIyWlLk6GJQsqaUBKTNV-1">
          <mxGeometry x="470" y="598" width="40" height="30" as="geometry" />
        </mxCell>
        <mxCell id="YmDAYxAF2d3pHJYydPH4-34" value="" style="endArrow=classic;html=1;rounded=0;exitX=0.5;exitY=1;exitDx=0;exitDy=0;entryX=0.5;entryY=0;entryDx=0;entryDy=0;" edge="1" parent="WIyWlLk6GJQsqaUBKTNV-1" source="YmDAYxAF2d3pHJYydPH4-10" target="YmDAYxAF2d3pHJYydPH4-11">
          <mxGeometry width="50" height="50" relative="1" as="geometry">
            <mxPoint x="420" y="870" as="sourcePoint" />
            <mxPoint x="470" y="820" as="targetPoint" />
          </mxGeometry>
        </mxCell>
        <mxCell id="YmDAYxAF2d3pHJYydPH4-35" value="" style="endArrow=classic;html=1;rounded=0;exitX=0.5;exitY=1;exitDx=0;exitDy=0;entryX=0.441;entryY=-0.06;entryDx=0;entryDy=0;entryPerimeter=0;" edge="1" parent="WIyWlLk6GJQsqaUBKTNV-1" source="YmDAYxAF2d3pHJYydPH4-11" target="YmDAYxAF2d3pHJYydPH4-12">
          <mxGeometry width="50" height="50" relative="1" as="geometry">
            <mxPoint x="400" y="940" as="sourcePoint" />
            <mxPoint x="450" y="890" as="targetPoint" />
          </mxGeometry>
        </mxCell>
        <mxCell id="YmDAYxAF2d3pHJYydPH4-36" value="Si" style="text;html=1;align=center;verticalAlign=middle;resizable=0;points=[];autosize=1;strokeColor=none;fillColor=none;" vertex="1" parent="WIyWlLk6GJQsqaUBKTNV-1">
          <mxGeometry x="335" y="928" width="30" height="30" as="geometry" />
        </mxCell>
        <mxCell id="YmDAYxAF2d3pHJYydPH4-39" value="" style="endArrow=classic;html=1;rounded=0;exitX=0.5;exitY=1;exitDx=0;exitDy=0;" edge="1" parent="WIyWlLk6GJQsqaUBKTNV-1" source="YmDAYxAF2d3pHJYydPH4-12">
          <mxGeometry width="50" height="50" relative="1" as="geometry">
            <mxPoint x="340" y="1030" as="sourcePoint" />
            <mxPoint x="346" y="1080" as="targetPoint" />
          </mxGeometry>
        </mxCell>
        <mxCell id="YmDAYxAF2d3pHJYydPH4-40" value="" style="ellipse;whiteSpace=wrap;html=1;aspect=fixed;" vertex="1" parent="WIyWlLk6GJQsqaUBKTNV-1">
          <mxGeometry x="320" y="1080" width="53.75" height="53.75" as="geometry" />
        </mxCell>
        <mxCell id="YmDAYxAF2d3pHJYydPH4-41" value="" style="endArrow=classic;html=1;rounded=0;entryX=1.005;entryY=0.353;entryDx=0;entryDy=0;entryPerimeter=0;" edge="1" parent="WIyWlLk6GJQsqaUBKTNV-1" target="YmDAYxAF2d3pHJYydPH4-40">
          <mxGeometry width="50" height="50" relative="1" as="geometry">
            <mxPoint x="380" y="890" as="sourcePoint" />
            <mxPoint x="590" y="1050" as="targetPoint" />
            <Array as="points">
              <mxPoint x="530" y="1010" />
            </Array>
          </mxGeometry>
        </mxCell>
        <mxCell id="YmDAYxAF2d3pHJYydPH4-42" value="No" style="edgeLabel;html=1;align=center;verticalAlign=middle;resizable=0;points=[];" vertex="1" connectable="0" parent="YmDAYxAF2d3pHJYydPH4-41">
          <mxGeometry x="-0.2083" y="-1" relative="1" as="geometry">
            <mxPoint as="offset" />
          </mxGeometry>
        </mxCell>
        <mxCell id="YmDAYxAF2d3pHJYydPH4-43" value="" style="endArrow=classic;html=1;rounded=0;exitX=0.5;exitY=1;exitDx=0;exitDy=0;entryX=0.5;entryY=0;entryDx=0;entryDy=0;" edge="1" parent="WIyWlLk6GJQsqaUBKTNV-1" source="YmDAYxAF2d3pHJYydPH4-40" target="YmDAYxAF2d3pHJYydPH4-14">
          <mxGeometry width="50" height="50" relative="1" as="geometry">
            <mxPoint x="490" y="1180" as="sourcePoint" />
            <mxPoint x="540" y="1130" as="targetPoint" />
          </mxGeometry>
        </mxCell>
        <mxCell id="YmDAYxAF2d3pHJYydPH4-44" value="&lt;div&gt;temporal = n1;&lt;/div&gt;&lt;div&gt;n1 = n2;&lt;/div&gt;&lt;div&gt;n2 = temporal;&lt;br&gt;&lt;/div&gt;" style="rounded=0;whiteSpace=wrap;html=1;" vertex="1" parent="WIyWlLk6GJQsqaUBKTNV-1">
          <mxGeometry x="286.25" y="1320" width="120" height="60" as="geometry" />
        </mxCell>
        <mxCell id="YmDAYxAF2d3pHJYydPH4-45" value="" style="endArrow=classic;html=1;rounded=0;exitX=0.5;exitY=1;exitDx=0;exitDy=0;entryX=0.5;entryY=0;entryDx=0;entryDy=0;" edge="1" parent="WIyWlLk6GJQsqaUBKTNV-1" source="YmDAYxAF2d3pHJYydPH4-14" target="YmDAYxAF2d3pHJYydPH4-44">
          <mxGeometry width="50" height="50" relative="1" as="geometry">
            <mxPoint x="490" y="1280" as="sourcePoint" />
            <mxPoint x="540" y="1230" as="targetPoint" />
          </mxGeometry>
        </mxCell>
        <mxCell id="YmDAYxAF2d3pHJYydPH4-50" value="Si" style="edgeLabel;html=1;align=center;verticalAlign=middle;resizable=0;points=[];" vertex="1" connectable="0" parent="YmDAYxAF2d3pHJYydPH4-45">
          <mxGeometry x="-0.32" y="2" relative="1" as="geometry">
            <mxPoint as="offset" />
          </mxGeometry>
        </mxCell>
        <mxCell id="YmDAYxAF2d3pHJYydPH4-47" value="" style="ellipse;whiteSpace=wrap;html=1;aspect=fixed;" vertex="1" parent="WIyWlLk6GJQsqaUBKTNV-1">
          <mxGeometry x="335" y="1430" width="40" height="40" as="geometry" />
        </mxCell>
        <mxCell id="YmDAYxAF2d3pHJYydPH4-48" value="End" style="rounded=1;whiteSpace=wrap;html=1;" vertex="1" parent="WIyWlLk6GJQsqaUBKTNV-1">
          <mxGeometry x="309" y="1620" width="105" height="30" as="geometry" />
        </mxCell>
        <mxCell id="YmDAYxAF2d3pHJYydPH4-49" value="&quot;Ordenados {n1}, {n2}, {n3}&quot;" style="shape=document;whiteSpace=wrap;html=1;boundedLbl=1;" vertex="1" parent="WIyWlLk6GJQsqaUBKTNV-1">
          <mxGeometry x="295" y="1510" width="115" height="80" as="geometry" />
        </mxCell>
        <mxCell id="YmDAYxAF2d3pHJYydPH4-51" value="" style="endArrow=classic;html=1;rounded=0;exitX=0.5;exitY=1;exitDx=0;exitDy=0;entryX=0.281;entryY=0;entryDx=0;entryDy=0;entryPerimeter=0;" edge="1" parent="WIyWlLk6GJQsqaUBKTNV-1" source="YmDAYxAF2d3pHJYydPH4-44" target="YmDAYxAF2d3pHJYydPH4-47">
          <mxGeometry width="50" height="50" relative="1" as="geometry">
            <mxPoint x="380" y="1430" as="sourcePoint" />
            <mxPoint x="430" y="1380" as="targetPoint" />
          </mxGeometry>
        </mxCell>
        <mxCell id="YmDAYxAF2d3pHJYydPH4-53" value="" style="endArrow=classic;html=1;rounded=0;" edge="1" parent="WIyWlLk6GJQsqaUBKTNV-1">
          <mxGeometry width="50" height="50" relative="1" as="geometry">
            <mxPoint x="390" y="1230" as="sourcePoint" />
            <mxPoint x="380" y="1440" as="targetPoint" />
            <Array as="points">
              <mxPoint x="470" y="1350" />
            </Array>
          </mxGeometry>
        </mxCell>
        <mxCell id="YmDAYxAF2d3pHJYydPH4-54" value="No" style="edgeLabel;html=1;align=center;verticalAlign=middle;resizable=0;points=[];" vertex="1" connectable="0" parent="YmDAYxAF2d3pHJYydPH4-53">
          <mxGeometry x="-0.2931" relative="1" as="geometry">
            <mxPoint as="offset" />
          </mxGeometry>
        </mxCell>
        <mxCell id="YmDAYxAF2d3pHJYydPH4-55" value="" style="endArrow=classic;html=1;rounded=0;exitX=0.5;exitY=1;exitDx=0;exitDy=0;entryX=0.5;entryY=0;entryDx=0;entryDy=0;" edge="1" parent="WIyWlLk6GJQsqaUBKTNV-1" source="YmDAYxAF2d3pHJYydPH4-47" target="YmDAYxAF2d3pHJYydPH4-49">
          <mxGeometry width="50" height="50" relative="1" as="geometry">
            <mxPoint x="430" y="1480" as="sourcePoint" />
            <mxPoint x="480" y="1430" as="targetPoint" />
          </mxGeometry>
        </mxCell>
        <mxCell id="YmDAYxAF2d3pHJYydPH4-56" value="" style="endArrow=classic;html=1;rounded=0;exitX=0.492;exitY=0.913;exitDx=0;exitDy=0;exitPerimeter=0;entryX=0.429;entryY=-0.033;entryDx=0;entryDy=0;entryPerimeter=0;" edge="1" parent="WIyWlLk6GJQsqaUBKTNV-1" source="YmDAYxAF2d3pHJYydPH4-49" target="YmDAYxAF2d3pHJYydPH4-48">
          <mxGeometry width="50" height="50" relative="1" as="geometry">
            <mxPoint x="640" y="1600" as="sourcePoint" />
            <mxPoint x="690" y="1550" as="targetPoint" />
          </mxGeometry>
        </mxCell>
      </root>
    </mxGraphModel>
  </diagram>
</mxfile>
